HIERARCHY
ROOT Hips
{
	OFFSET 0.000000 83.214638 0.000000
	CHANNELS 6 Xposition Yposition Zposition Xrotation Yrotation Zrotation
	JOINT Pelvis
	{
		OFFSET 0.000000 0.000000 0.000000
		CHANNELS 3 Xrotation Yrotation Zrotation
		JOINT LeftUpLeg
		{
			OFFSET 8.479700 -4.795502 -0.379100
			CHANNELS 3 Xrotation Yrotation Zrotation
			JOINT LeftLeg
			{
				OFFSET 0.024144 -32.555107 0.112900
				CHANNELS 3 Xrotation Yrotation Zrotation
				JOINT LeftFoot
				{
					OFFSET -0.024144 -32.638630 -3.012600
					CHANNELS 3 Xrotation Yrotation Zrotation
					JOINT LeftToeBase
					{
						OFFSET 0.970200 -13.225400 11.864200
						CHANNELS 3 Xrotation Yrotation Zrotation
						End Site
						{
							OFFSET 0.000000 12.319262 0.000000
						}
					}
					JOINT LFootTongue
					{
						OFFSET 1.142400 -1.059800 6.665200
						CHANNELS 3 Xrotation Yrotation Zrotation
						End Site
						{
							OFFSET 0.000000 12.319262 0.000000
						}
					}
				}
				JOINT LeftPantLeg
				{
					OFFSET 0.918482 -16.533964 -2.284700
					CHANNELS 3 Xrotation Yrotation Zrotation
					End Site
					{
						OFFSET 0.350399 24.744368 0.000000
					}
				}
			}
		}
		JOINT RightUpLeg
		{
			OFFSET -8.479700 -4.795502 -0.379100
			CHANNELS 3 Xrotation Yrotation Zrotation
			JOINT RightLeg
			{
				OFFSET -0.023144 -32.555092 0.112900
				CHANNELS 3 Xrotation Yrotation Zrotation
				JOINT RightFoot
				{
					OFFSET 0.023144 -32.638641 -3.012700
					CHANNELS 3 Xrotation Yrotation Zrotation
					JOINT RightToeBase
					{
						OFFSET -0.970200 -13.225400 11.864200
						CHANNELS 3 Xrotation Yrotation Zrotation
						End Site
						{
							OFFSET 0.000000 12.319244 0.000000
						}
					}
					JOINT RFootTongue
					{
						OFFSET -1.142200 -1.059800 6.665200
						CHANNELS 3 Xrotation Yrotation Zrotation
						End Site
						{
							OFFSET 0.000000 12.319243 0.000000
						}
					}
				}
				JOINT RightPantLeg
				{
					OFFSET -0.919482 -16.533978 -2.284800
					CHANNELS 3 Xrotation Yrotation Zrotation
					End Site
					{
						OFFSET -0.350400 24.744419 0.000000
					}
				}
			}
		}
	}
	JOINT Spine
	{
		OFFSET 0.000000 7.722000 1.166200
		CHANNELS 3 Xrotation Yrotation Zrotation
		JOINT Spine1
		{
			OFFSET 0.000000 12.024101 0.248800
			CHANNELS 3 Xrotation Yrotation Zrotation
			JOINT Spine2
			{
				OFFSET 0.000000 11.502998 -0.491200
				CHANNELS 3 Xrotation Yrotation Zrotation
				JOINT Neck
				{
					OFFSET 0.000000 18.430702 -3.123100
					CHANNELS 3 Xrotation Yrotation Zrotation
					JOINT Head
					{
						OFFSET 0.000000 9.051102 1.034000
						CHANNELS 3 Xrotation Yrotation Zrotation
						JOINT HairB
						{
							OFFSET 0.208400 24.786102 24.822300
							CHANNELS 3 Xrotation Yrotation Zrotation
							End Site
							{
								OFFSET 0.000000 32.263779 0.000000
							}
						}
						JOINT HairA
						{
							OFFSET -7.081100 24.428299 23.196600
							CHANNELS 3 Xrotation Yrotation Zrotation
							End Site
							{
								OFFSET 0.000000 32.263779 0.000000
							}
						}
						JOINT Hat
						{
							OFFSET 16.728800 15.048294 -15.439601
							CHANNELS 3 Xrotation Yrotation Zrotation
							End Site
							{
								OFFSET 0.000000 32.263779 0.000000
							}
						}
					}
				}
				JOINT LeftShoulder
				{
					OFFSET 6.197800 13.665199 -4.064700
					CHANNELS 3 Xrotation Yrotation Zrotation
					JOINT LeftArm
					{
						OFFSET 7.778100 -0.187103 -1.709300
						CHANNELS 3 Xrotation Yrotation Zrotation
						JOINT LeftForeArm
						{
							OFFSET 22.049376 0.000000 0.000000
							CHANNELS 3 Xrotation Yrotation Zrotation
							JOINT LeftHand
							{
								OFFSET 23.009392 0.000000 0.000000
								CHANNELS 3 Xrotation Yrotation Zrotation
								JOINT LeftHandThumb1
								{
									OFFSET 3.507191 -2.063065 3.133727
									CHANNELS 3 Xrotation Yrotation Zrotation
									JOINT LeftHandThumb2
									{
										OFFSET 3.101337 -1.790558 1.790558
										CHANNELS 3 Xrotation Yrotation Zrotation
										JOINT LeftHandThumb3
										{
											OFFSET 3.058640 -1.765907 1.765906
											CHANNELS 3 Xrotation Yrotation Zrotation
											End Site
											{
												OFFSET -0.415260 3.926476 -0.049563
											}
										}
									}
								}
								JOINT LeftHandIndex1
								{
									OFFSET 11.334419 -0.901459 3.706815
									CHANNELS 3 Xrotation Yrotation Zrotation
									JOINT LeftHandIndex2
									{
										OFFSET 3.283112 0.000000 0.000000
										CHANNELS 3 Xrotation Yrotation Zrotation
										JOINT LeftHandIndex3
										{
											OFFSET 3.323853 0.000000 0.000000
											CHANNELS 3 Xrotation Yrotation Zrotation
											End Site
											{
												OFFSET -1.135597 3.097809 0.402452
											}
										}
									}
								}
								JOINT LeftHandMiddle1
								{
									OFFSET 11.335861 0.000000 0.000000
									CHANNELS 3 Xrotation Yrotation Zrotation
									JOINT LeftHandMiddle2
									{
										OFFSET 3.410492 0.000000 0.000000
										CHANNELS 3 Xrotation Yrotation Zrotation
										JOINT LeftHandMiddle3
										{
											OFFSET 3.312172 0.000000 0.000000
											CHANNELS 3 Xrotation Yrotation Zrotation
											End Site
											{
												OFFSET -1.150200 3.080154 0.400270
											}
										}
									}
								}
								JOINT LeftHandRing1
								{
									OFFSET 11.514786 -0.013176 -3.003090
									CHANNELS 3 Xrotation Yrotation Zrotation
									JOINT LeftHandRing2
									{
										OFFSET 3.053307 0.000000 0.000000
										CHANNELS 3 Xrotation Yrotation Zrotation
										JOINT LeftHandRing3
										{
											OFFSET 3.295807 0.000000 0.000000
											CHANNELS 3 Xrotation Yrotation Zrotation
											End Site
											{
												OFFSET -1.281006 3.013344 0.375733
											}
										}
									}
								}
								JOINT LeftHandPinky1
								{
									OFFSET 10.518692 -0.960396 -5.730441
									CHANNELS 3 Xrotation Yrotation Zrotation
									JOINT LeftHandPinky2
									{
										OFFSET 2.861649 0.000000 0.000000
										CHANNELS 3 Xrotation Yrotation Zrotation
										JOINT LeftHandPinky3
										{
											OFFSET 2.863380 0.000000 0.000000
											CHANNELS 3 Xrotation Yrotation Zrotation
											End Site
											{
												OFFSET -0.843597 2.711159 0.369971
											}
										}
									}
								}
							}
							JOINT LSleeve
							{
								OFFSET 6.676277 -0.344902 -1.011730
								CHANNELS 3 Xrotation Yrotation Zrotation
								End Site
								{
									OFFSET 0.000000 14.885353 0.000000
								}
							}
						}
					}
				}
				JOINT RightShoulder
				{
					OFFSET -6.197800 13.665199 -4.064700
					CHANNELS 3 Xrotation Yrotation Zrotation
					JOINT RightArm
					{
						OFFSET -7.778100 -0.187103 -1.709300
						CHANNELS 3 Xrotation Yrotation Zrotation
						JOINT RightForeArm
						{
							OFFSET -22.049376 0.000000 0.000000
							CHANNELS 3 Xrotation Yrotation Zrotation
							JOINT RightHand
							{
								OFFSET -23.009392 0.000000 0.000000
								CHANNELS 3 Xrotation Yrotation Zrotation
								JOINT RightHandThumb1
								{
									OFFSET -3.507191 -2.063065 3.133727
									CHANNELS 3 Xrotation Yrotation Zrotation
									JOINT RightHandThumb2
									{
										OFFSET -3.101337 -1.790558 1.790558
										CHANNELS 3 Xrotation Yrotation Zrotation
										JOINT RightHandThumb3
										{
											OFFSET -3.058640 -1.765907 1.765906
											CHANNELS 3 Xrotation Yrotation Zrotation
											End Site
											{
												OFFSET 0.415260 3.926476 -0.049563
											}
										}
									}
								}
								JOINT RightHandIndex1
								{
									OFFSET -11.334419 -0.901459 3.706815
									CHANNELS 3 Xrotation Yrotation Zrotation
									JOINT RightHandIndex2
									{
										OFFSET -3.283112 0.000000 0.000000
										CHANNELS 3 Xrotation Yrotation Zrotation
										JOINT RightHandIndex3
										{
											OFFSET -3.323853 0.000000 0.000000
											CHANNELS 3 Xrotation Yrotation Zrotation
											End Site
											{
												OFFSET 1.135597 3.097809 0.402452
											}
										}
									}
								}
								JOINT RightHandMiddle1
								{
									OFFSET -11.335861 0.000000 0.000000
									CHANNELS 3 Xrotation Yrotation Zrotation
									JOINT RightHandMiddle2
									{
										OFFSET -3.410492 0.000000 0.000000
										CHANNELS 3 Xrotation Yrotation Zrotation
										JOINT RightHandMiddle3
										{
											OFFSET -3.312172 0.000000 0.000000
											CHANNELS 3 Xrotation Yrotation Zrotation
											End Site
											{
												OFFSET 1.150200 3.080154 0.400270
											}
										}
									}
								}
								JOINT RightHandRing1
								{
									OFFSET -11.514786 -0.013176 -3.003090
									CHANNELS 3 Xrotation Yrotation Zrotation
									JOINT RightHandRing2
									{
										OFFSET -3.053307 0.000000 0.000000
										CHANNELS 3 Xrotation Yrotation Zrotation
										JOINT RightHandRing3
										{
											OFFSET -3.295807 0.000000 0.000000
											CHANNELS 3 Xrotation Yrotation Zrotation
											End Site
											{
												OFFSET 1.281006 3.013344 0.375733
											}
										}
									}
								}
								JOINT RightHandPinky1
								{
									OFFSET -10.518692 -0.960396 -5.730441
									CHANNELS 3 Xrotation Yrotation Zrotation
									JOINT RightHandPinky2
									{
										OFFSET -2.861649 0.000000 0.000000
										CHANNELS 3 Xrotation Yrotation Zrotation
										JOINT RightHandPinky3
										{
											OFFSET -2.863380 0.000000 0.000000
											CHANNELS 3 Xrotation Yrotation Zrotation
											End Site
											{
												OFFSET 0.843597 2.711159 0.369971
											}
										}
									}
								}
							}
							JOINT RSleeve
							{
								OFFSET -6.676277 -0.344902 -1.011730
								CHANNELS 3 Xrotation Yrotation Zrotation
								End Site
								{
									OFFSET 0.000000 14.885353 0.000000
								}
							}
						}
					}
				}
				JOINT Backpack
				{
					OFFSET 0.000000 -2.471497 36.677502
					CHANNELS 3 Xrotation Yrotation Zrotation
					End Site
					{
						OFFSET 0.000000 20.427315 0.000000
					}
				}
				JOINT Hood
				{
					OFFSET 0.000000 18.754097 -10.431000
					CHANNELS 3 Xrotation Yrotation Zrotation
					JOINT Hood1
					{
						OFFSET 0.000000 -5.011002 -7.685901
						CHANNELS 3 Xrotation Yrotation Zrotation
						End Site
						{
							OFFSET 0.000000 9.175140 0.000000
						}
					}
				}
				JOINT LHoodieString
				{
					OFFSET 5.250500 16.397697 3.089900
					CHANNELS 3 Xrotation Yrotation Zrotation
					JOINT LHoodieString1
					{
						OFFSET 0.257700 -6.364304 3.694600
						CHANNELS 3 Xrotation Yrotation Zrotation
						JOINT LHoodieString2
						{
							OFFSET 0.000000 -9.643799 2.679100
							CHANNELS 3 Xrotation Yrotation Zrotation
							End Site
							{
								OFFSET 0.000000 10.009018 0.000000
							}
						}
					}
				}
				JOINT RHoodieString
				{
					OFFSET -5.250500 16.397697 3.089900
					CHANNELS 3 Xrotation Yrotation Zrotation
					JOINT RHoodieString1
					{
						OFFSET -0.257700 -6.364304 3.694600
						CHANNELS 3 Xrotation Yrotation Zrotation
						JOINT RHoodieString2
						{
							OFFSET 0.000000 -9.643799 2.679100
							CHANNELS 3 Xrotation Yrotation Zrotation
							End Site
							{
								OFFSET 0.000000 10.009018 0.000000
							}
						}
					}
				}
			}
			JOINT LBackpack_Strap
			{
				OFFSET 15.223200 -7.719803 -6.610900
				CHANNELS 3 Xrotation Yrotation Zrotation
				End Site
				{
					OFFSET 0.000000 16.040596 0.000000
				}
			}
			JOINT RBackpack_Strap
			{
				OFFSET -15.223000 -7.719803 -6.610900
				CHANNELS 3 Xrotation Yrotation Zrotation
				End Site
				{
					OFFSET 0.000000 16.040596 0.000000
				}
			}
		}
	}
	JOINT BoyFacialAnim_Joint
	{
		OFFSET 1.000000 -82.208099 -1.550900
		CHANNELS 3 Xrotation Yrotation Zrotation
		End Site
		{
			OFFSET 0.000000 30.012791 0.000000
		}
	}
}
MOTION
Frames: 4
Frame Time: 0.033333
0.081188 76.940926 0.600502 -8.378780 2.054439 9.035617 0.000000 -0.000000 -0.000000 -9.558997 -0.910500 -10.570240 39.058734 7.078989 -4.171970 -21.355621 -0.574852 2.450126 -0.000000 0.000000 -0.000000 -0.000000 0.000000 0.000000 0.000001 0.000000 -0.000000 -30.244276 7.074085 -14.722493 59.487826 -0.614938 9.958749 -6.677004 -0.619763 8.789819 0.000001 -0.000000 0.000000 0.000001 -0.000000 0.000000 -0.000002 0.000000 -0.000000 18.325881 6.838613 1.559287 2.322335 1.106890 -4.975298 2.389726 0.934668 -4.973143 -6.432319 -3.289030 -7.933721 -3.631034 -29.178664 12.110223 0.000000 0.000001 -0.000000 0.000000 0.000001 -0.000000 0.000000 0.000001 -0.000000 0.454231 2.848160 -6.178067 0.530430 8.323667 -56.097604 -0.000005 -1.497132 0.000012 57.106966 -4.605119 8.353434 -1.820742 14.989327 7.863377 4.849775 19.292651 1.571653 0.000000 -0.000001 0.000003 0.177487 1.556348 -13.011172 0.182244 1.576790 -13.185180 0.000001 0.000002 -0.000003 0.123960 1.303304 -10.866420 0.179403 1.564573 -13.081207 -0.000002 0.000001 0.000002 0.133360 1.351308 -11.272115 0.191805 1.617013 -13.528054 -0.000001 0.000001 -0.000000 1.198003 5.635888 -13.811143 0.215532 -2.333394 -14.927314 -0.000000 -0.000001 0.000001 -0.000001 0.000003 0.000004 1.222587 5.103791 2.784646 -16.369009 18.596662 57.709484 0.000002 23.526180 -0.000000 50.832716 19.335065 -41.115990 -2.138680 -14.869470 -8.382479 5.640675 -19.974355 -0.978780 -0.000000 -0.000001 0.000001 0.011953 -0.408340 3.352764 0.102044 -1.189304 9.808036 -0.000002 0.000001 0.000002 0.014314 -0.446844 3.669295 0.097821 -1.164589 9.602332 0.000001 -0.000001 0.000001 0.025009 -0.590426 4.850820 0.128412 -1.332793 11.005953 0.000000 -0.000000 0.000002 0.054045 -0.867070 7.133819 0.195491 -1.640362 13.590926 0.000001 -0.000003 0.000001 0.000001 -0.000002 -0.000000 -0.000001 0.000000 -0.000000 -0.000001 0.000000 -0.000000 -0.000001 0.000000 -0.000000 -0.000001 0.000000 -0.000000 -0.000001 0.000000 -0.000000 -0.000001 0.000000 -0.000000 -0.000001 0.000000 -0.000000 -0.000001 0.000000 -0.000000 -0.000001 0.000000 -0.000000 0.000000 -0.000000 -0.000000 0.000000 -0.000000 -0.000000 0.000000 -0.000000 -0.000000 
-0.137430 76.614853 0.369784 -9.631016 0.871798 9.842729 0.000001 0.000000 0.000000 -8.780212 -1.699100 -10.801857 40.048807 8.543174 -5.852645 -21.837339 -0.637825 2.405891 -0.000000 0.000000 -0.000000 -0.000000 0.000000 -0.000000 0.000001 0.000000 -0.000001 -32.057647 5.429624 -18.830179 60.273728 6.538176 8.374295 -4.401055 -1.200816 15.320640 -0.000000 -0.000000 -0.000001 -0.000000 -0.000000 -0.000001 -0.000001 -0.000000 0.000000 20.176041 6.232353 0.168660 2.634488 1.065981 -4.950568 2.700967 0.879478 -4.945924 -7.284064 -3.517110 -8.089091 -3.920383 -30.643463 12.924566 0.000000 -0.000001 -0.000000 0.000000 -0.000001 -0.000000 0.000000 -0.000001 -0.000000 0.540991 2.365898 -6.722438 0.355548 5.405381 -56.306259 -0.000001 -2.990524 0.000007 58.762112 -4.964572 8.504853 -1.820719 14.989332 7.863366 4.849776 19.292655 1.571654 -0.000003 -0.000001 0.000001 0.184273 1.585425 -13.258766 0.185669 1.591319 -13.308980 -0.000000 0.000003 -0.000003 0.128590 1.327112 -11.067580 0.183207 1.580807 -13.219500 0.000007 -0.000001 0.000002 0.138169 1.375096 -11.473267 0.195715 1.633226 -13.666341 0.000000 -0.000002 -0.000001 1.222532 5.660508 -14.060354 0.219388 -2.318989 -15.050884 -0.000000 0.000001 -0.000004 -0.000000 0.000000 -0.000002 1.391157 6.254286 1.712414 -19.315449 20.102978 59.607081 0.000004 25.520645 -0.000001 53.117312 19.309655 -43.089218 -2.138678 -14.869443 -8.382476 5.640675 -19.974357 -0.978781 0.000000 -0.000000 -0.000000 0.011173 -0.394901 3.242214 0.100902 -1.182639 9.752739 -0.000001 -0.000000 -0.000000 0.013620 -0.435895 3.579477 0.096572 -1.157154 9.540553 0.000001 0.000001 -0.000000 0.024093 -0.579508 4.760991 0.126974 -1.325399 10.944154 0.000001 -0.000000 0.000002 0.052388 -0.853682 7.023251 0.193901 -1.633818 13.535604 -0.000000 -0.000002 -0.000000 0.000002 0.000003 -0.000003 0.000000 0.000001 0.000000 0.000000 0.000001 0.000000 0.000000 0.000001 0.000000 0.000000 0.000001 0.000000 0.000000 0.000001 -0.000000 0.000000 0.000001 -0.000000 0.000000 0.000001 0.000000 0.000000 0.000001 -0.000000 0.000000 0.000001 -0.000000 0.000000 -0.000000 -0.000000 0.000000 -0.000000 -0.000000 0.000001 0.000000 0.000000 
-0.231148 76.670319 -0.007172 -10.272188 -0.389021 10.376206 0.000000 0.000000 -0.000000 -8.356758 -3.722653 -11.433261 39.165261 7.622787 -7.607110 -21.371320 2.863808 3.752040 0.000000 -0.000000 -0.000000 0.000000 -0.000000 0.000000 0.000004 -0.000001 0.000000 -32.882665 4.306400 -21.787996 57.814006 6.697047 6.624474 -2.875822 -1.463322 19.183240 0.000001 -0.000000 -0.000001 0.000001 -0.000000 -0.000001 -0.000001 -0.000000 0.000000 21.867295 5.938477 -1.010894 2.950600 1.071477 -5.285258 3.023275 0.859594 -5.277390 -8.153387 -3.948905 -8.214885 -4.194210 -33.009765 13.969472 0.000000 0.000001 -0.000001 0.000000 0.000001 -0.000001 0.000000 0.000001 -0.000001 0.623856 1.755680 -7.105401 -0.516659 2.764981 -55.904596 -0.000003 -5.325914 0.000014 60.183406 -5.609890 9.931922 -1.820742 14.989335 7.863379 4.849777 19.292662 1.571656 -0.000002 -0.000001 -0.000002 0.185291 1.589738 -13.295545 0.186182 1.593473 -13.327381 0.000001 -0.000000 -0.000002 0.129265 1.330645 -11.097426 0.183748 1.583225 -13.240037 -0.000003 0.000000 0.000000 0.138865 1.378617 -11.503130 0.196289 1.635637 -13.686906 0.000002 -0.000000 0.000001 1.226174 5.664152 -14.097360 0.219949 -2.316822 -15.069218 -0.000005 -0.000001 -0.000002 -0.000002 -0.000001 0.000000 1.550525 7.062619 0.403354 -22.514764 21.310784 61.665837 0.000009 28.426248 -0.000007 53.780090 18.970046 -44.981608 -2.138682 -14.869484 -8.382485 5.640675 -19.974357 -0.978780 -0.000000 0.000000 -0.000000 0.004657 -0.255015 2.092790 0.089385 -1.113571 9.177823 -0.000001 0.000001 0.000004 0.007443 -0.322296 2.645555 0.084033 -1.079942 8.898269 0.000000 0.000001 0.000002 0.015570 -0.466053 3.827039 0.112552 -1.248513 10.301804 0.000001 0.000003 0.000001 0.036656 -0.714525 5.873647 0.177843 -1.565622 12.960473 0.000000 0.000000 0.000000 0.000001 0.000001 -0.000002 0.000003 0.000000 -0.000000 0.000003 0.000000 -0.000000 0.000003 0.000000 -0.000000 0.000003 0.000000 -0.000000 0.000003 0.000000 -0.000000 0.000001 0.000000 -0.000000 0.000003 0.000000 -0.000000 0.000003 0.000000 -0.000000 0.000001 0.000000 -0.000000 -0.000000 0.000000 0.000000 -0.000000 0.000000 0.000000 0.000000 0.000000 -0.000000 
-0.251142 76.970787 -0.461060 -9.761218 -1.662994 10.738382 0.000000 0.000000 0.000000 -8.736476 -5.378283 -12.032352 37.235534 7.156780 -8.825610 -20.329276 6.042513 4.838319 0.000000 0.000000 -0.000000 0.000000 0.000000 0.000000 0.000002 -0.000000 0.000000 -33.126001 5.231221 -23.775139 52.939406 1.094508 6.962348 -0.319207 -1.216640 20.017012 0.000000 0.000000 -0.000003 0.000000 0.000000 -0.000003 -0.000001 -0.000001 0.000000 22.800295 6.283567 -1.734627 3.103049 1.180654 -6.361758 3.198919 0.922307 -6.351360 -8.837458 -4.798903 -8.168078 -4.082604 -37.031257 15.549192 -0.000000 -0.000001 0.000000 -0.000000 -0.000001 0.000000 -0.000000 -0.000001 0.000000 0.704120 0.810608 -6.788905 -1.206448 0.371737 -55.095171 0.000002 -10.673643 -0.000003 60.632074 -6.764128 13.882667 -1.820728 14.989335 7.863373 4.849780 19.292660 1.571653 -0.000002 -0.000002 -0.000001 0.172678 1.535436 -12.833151 0.179820 1.566336 -13.096184 -0.000004 -0.000002 -0.000002 0.120699 1.286170 -10.721841 0.176680 1.552894 -12.981734 -0.000001 -0.000002 -0.000000 0.129978 1.334207 -11.127511 0.189000 1.605357 -13.428616 -0.000001 0.000003 -0.000002 1.180445 5.618108 -13.632020 0.212739 -2.343768 -14.838487 0.000002 -0.000002 0.000001 0.000001 -0.000001 -0.000001 1.541098 6.811476 -0.979232 -24.747618 21.674931 63.210928 -0.000019 35.308612 0.000025 52.185845 18.505049 -46.503258 -2.138682 -14.869481 -8.382485 5.640675 -19.974357 -0.978780 0.000000 -0.000001 -0.000000 0.000290 0.063914 -0.524450 0.065743 -0.955856 7.868777 -0.000001 -0.000000 0.000002 0.000283 -0.063257 0.519021 0.058715 -0.903585 7.435874 0.000001 0.000001 0.000002 0.003077 -0.207212 1.700459 0.082916 -1.072815 8.839233 -0.000000 0.000001 0.000002 0.011268 -0.396610 3.256159 0.143842 -1.409823 11.650968 0.000000 -0.000000 0.000000 -0.000002 -0.000001 0.000001 0.000003 -0.000001 0.000000 0.000003 -0.000001 0.000000 0.000003 -0.000001 0.000000 0.000003 -0.000001 0.000000 0.000003 -0.000001 0.000000 0.000001 0.000000 -0.000000 0.000003 -0.000001 0.000000 0.000003 -0.000001 0.000000 0.000001 0.000000 -0.000000 -0.000001 -0.000000 -0.000000 -0.000001 -0.000000 -0.000000 0.000000 0.000000 0.000000 
